<svg width="112" height="42" viewBox="0 0 112 42" fill="none" xmlns="http://www.w3.org/2000/svg">
<rect x="70.5" y="0.5" width="41" height="41" rx="20.5" fill="white" stroke="black"/>
<path d="M77.175 22.627H79.4456V25H77.175V22.627Z" fill="black"/>
<path d="M85.0049 17.3169C85.6299 17.3169 86.189 17.4756 86.6822 17.793C87.1802 18.1104 87.5708 18.5669 87.8541 19.1626C88.1373 19.7583 88.2789 20.4541 88.2789 21.25C88.2789 22.0264 88.1397 22.7124 87.8614 23.3081C87.5879 23.9038 87.2071 24.3652 86.7188 24.6924C86.2305 25.0195 85.6763 25.1831 85.0562 25.1831C84.607 25.1831 84.1871 25.0928 83.7964 24.9121C83.4107 24.7266 83.0787 24.458 82.8003 24.1064V28.0029H80.7056V17.5H82.8003V18.4741C83.0396 18.0981 83.3545 17.8125 83.7452 17.6172C84.1358 17.417 84.5557 17.3169 85.0049 17.3169ZM84.3458 23.6816C84.7608 23.6816 85.0879 23.5938 85.3272 23.418C85.5713 23.2422 85.7447 22.9761 85.8472 22.6196C85.9498 22.2583 86.001 21.792 86.001 21.2207C86.001 20.6396 85.9473 20.1758 85.8399 19.8291C85.7325 19.4824 85.5616 19.2285 85.3272 19.0674C85.0928 18.9014 84.7803 18.8184 84.3897 18.8184C83.8233 18.8184 83.4083 19.021 83.1446 19.4263C82.8858 19.8315 82.7564 20.4297 82.7564 21.2207C82.7564 22.0459 82.8785 22.6636 83.1226 23.0737C83.3716 23.479 83.7793 23.6816 84.3458 23.6816Z" fill="black"/>
<path d="M95.5667 18.0273C95.8402 18.3008 96.0208 18.623 96.1087 18.9941C96.1966 19.3652 96.2406 19.8364 96.2406 20.4077V25H94.1239V20.5908C94.1239 20.2246 94.097 19.9438 94.0433 19.7485C93.9945 19.5532 93.8919 19.3799 93.7357 19.2285C93.6087 19.1064 93.4745 19.0259 93.3329 18.9868C93.1913 18.9478 93.0008 18.9282 92.7616 18.9282C92.5223 18.9282 92.2977 18.9893 92.0877 19.1113C91.8778 19.2334 91.7044 19.4434 91.5677 19.7412C91.431 20.0342 91.3626 20.4224 91.3626 20.9058V25H89.2679V17.5H91.348V18.6279C91.5335 18.1787 91.8192 17.8491 92.2049 17.6392C92.5956 17.4243 93.0497 17.3169 93.5672 17.3169C94.0409 17.3169 94.4291 17.373 94.7318 17.4854C95.0394 17.5977 95.3177 17.7783 95.5667 18.0273Z" fill="black"/>
<path d="M104.708 17.5V24.8828C104.708 25.5664 104.561 26.1475 104.268 26.626C103.975 27.1045 103.555 27.4658 103.008 27.71C102.466 27.9541 101.822 28.0762 101.075 28.0762C100.049 28.0762 99.2218 27.8711 98.5919 27.4609C97.9669 27.0557 97.63 26.4209 97.5812 25.5566L99.632 25.4175C99.671 25.8228 99.8102 26.1157 100.049 26.2964C100.294 26.4819 100.64 26.5747 101.09 26.5747C101.631 26.5747 102.02 26.4307 102.254 26.1426C102.488 25.8594 102.606 25.4297 102.606 24.8535V23.7842C102.166 24.5557 101.465 24.9414 100.504 24.9414C99.8444 24.9414 99.2633 24.7803 98.7604 24.458C98.2575 24.1357 97.8668 23.6816 97.5885 23.0957C97.3102 22.5049 97.171 21.8237 97.171 21.0522C97.171 20.3247 97.3126 19.6777 97.5958 19.1113C97.8791 18.5449 98.2697 18.1055 98.7677 17.793C99.2658 17.4756 99.8297 17.3169 100.46 17.3169C100.938 17.3169 101.356 17.417 101.712 17.6172C102.073 17.8125 102.371 18.0859 102.606 18.4375V17.5H104.708ZM101.06 23.4399C101.617 23.4399 102.022 23.2373 102.276 22.832C102.535 22.4219 102.664 21.8286 102.664 21.0522C102.664 20.3394 102.535 19.79 102.276 19.4043C102.022 19.0137 101.627 18.8184 101.09 18.8184C100.508 18.8184 100.091 18.9966 99.8371 19.353C99.5832 19.7046 99.4562 20.271 99.4562 21.0522C99.4562 21.6284 99.5099 22.0898 99.6173 22.4365C99.7296 22.7832 99.9005 23.0371 100.13 23.1982C100.364 23.3594 100.674 23.4399 101.06 23.4399Z" fill="black"/>
<rect x="35.5" y="0.5" width="41" height="41" rx="20.5" fill="white" stroke="black"/>
<path d="M55.7087 21.6126C55.7502 20.8673 56.1157 20.21 56.6663 19.7439C57.2071 19.2861 57.9346 19.0071 58.7281 19.0066C59.5217 19.0071 60.2491 19.2861 60.79 19.7439C61.3405 20.21 61.706 20.8673 61.748 21.6126C61.79 22.379 61.4823 23.0916 60.9416 23.6191C60.3908 24.1559 59.6061 24.4932 58.7286 24.4932C57.8506 24.4932 57.0654 24.1559 56.5142 23.6191C55.974 23.0916 55.6662 22.379 55.7087 21.6126Z" fill="#005385"/>
<path d="M50.898 23.1212C50.9029 23.4121 50.9967 23.9791 51.136 24.423C51.4294 25.3603 51.9271 26.2281 52.6205 26.993C53.3316 27.7782 54.2062 28.4098 55.2176 28.8572C56.2808 29.3284 57.4331 29.5689 58.6277 29.5665C59.8227 29.5644 60.9743 29.3201 62.0376 28.846C63.0481 28.3936 63.9227 27.7605 64.6333 26.9733C65.3256 26.2054 65.8225 25.3362 66.1163 24.3984C66.265 23.9243 66.3572 23.4437 66.3953 22.9613C66.4323 22.4862 66.4165 22.0096 66.3494 21.5341C66.2175 20.6072 65.8966 19.737 65.4032 18.9438C64.9503 18.2155 64.3686 17.5774 63.6762 17.0401L63.6772 17.0391L56.6907 11.674C56.6849 11.669 56.679 11.664 56.673 11.6591C56.2132 11.308 55.4428 11.309 54.9391 11.6616C54.4285 12.0187 54.3712 12.6078 54.8241 12.9806L54.8225 12.9816L57.7367 15.3521L48.8535 15.3614C48.8495 15.3614 48.8456 15.3614 48.8411 15.3614C48.1073 15.3619 47.402 15.8445 47.2618 16.4529C47.1191 17.0732 47.6179 17.5873 48.3808 17.5902L48.3799 17.5932L52.8822 17.5844L44.8474 23.751C44.8375 23.7588 44.8266 23.7663 44.8168 23.7741C44.0597 24.3544 43.8143 25.3199 44.2913 25.9308C44.7763 26.552 45.8059 26.5525 46.5719 25.9333L50.9567 22.3455C50.9567 22.3455 50.893 22.83 50.898 23.1212ZM62.165 24.7426C61.2618 25.6641 59.9976 26.1856 58.6282 26.188C57.2582 26.1906 55.9935 25.673 55.0897 24.7539C54.6482 24.3056 54.3238 23.7914 54.1233 23.2418C53.9277 22.7025 53.8512 22.1306 53.9015 21.5533C53.9504 20.9883 54.1168 20.45 54.386 19.9626C54.6502 19.4836 55.0132 19.051 55.4611 18.6846C56.3391 17.9686 57.4567 17.5813 58.6272 17.5798C59.7976 17.5784 60.9147 17.9626 61.7932 18.6756C62.2406 19.0401 62.6036 19.4712 62.8673 19.9494C63.1365 20.4362 63.3033 20.9735 63.3528 21.5385C63.4026 22.1158 63.3266 22.6877 63.1305 23.2274C62.9305 23.7776 62.6065 24.2927 62.165 24.7426Z" fill="#FF7021"/>
<rect x="0.5" y="0.5" width="41" height="41" rx="20.5" fill="white" stroke="black"/>
<path d="M17.5615 30.1906C19.3442 30.1906 20.7911 28.7434 20.7911 26.9604V23.7302H17.5615C15.7789 23.7302 14.332 25.1773 14.332 26.9604C14.332 28.7434 15.7789 30.1906 17.5615 30.1906Z" fill="#24CE85"/>
<path d="M14.332 20.4999C14.332 18.7169 15.7789 17.2698 17.5615 17.2698H20.7911V23.7301H17.5615C15.7789 23.7301 14.332 22.283 14.332 20.4999Z" fill="#A160FC"/>
<path d="M14.3359 14.0397C14.3359 12.2567 15.7828 10.8096 17.5655 10.8096H20.795V17.2699H17.5655C15.7828 17.2699 14.3359 15.8228 14.3359 14.0397Z" fill="#F04F2B"/>
<path d="M20.793 10.8096H24.0225C25.8052 10.8096 27.252 12.2567 27.252 14.0397C27.252 15.8228 25.8052 17.2699 24.0225 17.2699H20.793V10.8096Z" fill="#FD7366"/>
<path d="M27.252 20.4999C27.252 22.283 25.8052 23.7301 24.0225 23.7301C22.2398 23.7301 20.793 22.283 20.793 20.4999C20.793 18.7169 22.2398 17.2698 24.0225 17.2698C25.8052 17.2698 27.252 18.7169 27.252 20.4999Z" fill="#2CBDFB"/>
</svg>
