<svg width="36" height="36" viewBox="0 0 36 36" fill="none" xmlns="http://www.w3.org/2000/svg">
<path d="M36 18C36 27.9411 27.9411 36 18 36C8.05887 36 0 27.9411 0 18C0 8.05887 8.05887 0 18 0C27.9411 0 36 8.05887 36 18Z" fill="white"/>
<path fill-rule="evenodd" clip-rule="evenodd" d="M18 35C27.3888 35 35 27.3888 35 18C35 8.61116 27.3888 1 18 1C8.61116 1 1 8.61116 1 18C1 27.3888 8.61116 35 18 35ZM18 36C27.9411 36 36 27.9411 36 18C36 8.05887 27.9411 0 18 0C8.05887 0 0 8.05887 0 18C0 27.9411 8.05887 36 18 36Z" fill="black"/>
<path fill-rule="evenodd" clip-rule="evenodd" d="M15.7814 21.6992V14.3909C15.7814 13.1493 14.7749 12.1428 13.5333 12.1428C12.2917 12.1428 11.2852 13.1493 11.2852 14.3909V21.6992C11.2852 22.9408 12.2917 23.9473 13.5333 23.9473C14.7749 23.9473 15.7814 22.9408 15.7814 21.6992ZM13.5333 11.1428C11.7394 11.1428 10.2852 12.5971 10.2852 14.3909V21.6992C10.2852 23.4931 11.7394 24.9473 13.5333 24.9473C15.3272 24.9473 16.7814 23.4931 16.7814 21.6992V14.3909C16.7814 12.5971 15.3272 11.1428 13.5333 11.1428Z" fill="black"/>
<path d="M16.7814 21.6993C16.7814 23.4932 15.3272 24.9474 13.5333 24.9474C11.7394 24.9474 10.2852 23.4932 10.2852 21.6993C10.2852 19.9054 11.7394 18.4512 13.5333 18.4512C15.3272 18.4512 16.7814 19.9054 16.7814 21.6993Z" fill="black"/>
<path fill-rule="evenodd" clip-rule="evenodd" d="M24.715 21.6992V14.3909C24.715 13.1493 23.7085 12.1428 22.4669 12.1428C21.2253 12.1428 20.2188 13.1493 20.2188 14.3909V21.6992C20.2188 22.9408 21.2253 23.9473 22.4669 23.9473C23.7085 23.9473 24.715 22.9408 24.715 21.6992ZM22.4669 11.1428C20.673 11.1428 19.2188 12.5971 19.2188 14.3909V21.6992C19.2188 23.4931 20.673 24.9473 22.4669 24.9473C24.2608 24.9473 25.715 23.4931 25.715 21.6992V14.3909C25.715 12.5971 24.2608 11.1428 22.4669 11.1428Z" fill="black"/>
<path d="M25.715 21.6993C25.715 23.4932 24.2608 24.9474 22.4669 24.9474C20.673 24.9474 19.2188 23.4932 19.2188 21.6993C19.2188 19.9054 20.673 18.4512 22.4669 18.4512C24.2608 18.4512 25.715 19.9054 25.715 21.6993Z" fill="black"/>
</svg>
